<svg fill="none" viewBox="0 0 196 54"><path d="M27.1999 43.0172H14.6461c-.1162 0-.2325 0-.3487-.1195l-10.1128-7.767c-.1162-.1195-.2325-.239-.2325-.3585L0 22.2255v-.3584L3.9521 8.245c0-.1195.1163-.239.2325-.3585L14.5299.1195C14.6461 0 14.7623 0 14.8786 0h12.0888c.1163 0 .2325 0 .3487.1195l10.3453 7.767c.1162.1195.2325.239.2325.3585l3.9521 13.5026v.3585l-3.8359 12.6661c0 .1195-.1162.239-.2325.3585l-10.1127 7.767c-.2325.1195-.3488.1195-.465.1195zm-11.9726-1.3144h10.3453c-4.0684-4.0628-8.1368-7.6475-12.3214-10.8738.3487 3.4653 1.0462 7.1695 1.9761 10.8738zm-1.5111-12.1882c4.5333 3.3457 8.7179 7.1695 13.135 11.4712a121.6546 121.6546 0 001.8598-16.4899c-5.5795 1.1949-10.8102 2.9873-14.9948 5.0187zm16.1572-4.4212c-.2325 5.0186-.8137 10.2763-1.7436 15.6534l8.3692-6.3331c-1.9761-3.8237-4.0684-6.9305-6.6256-9.3203zm-24.294 9.4398L13.6 40.6273c-.8136-3.4652-1.3948-6.9305-1.7435-10.2763-2.441 1.3144-4.5334 2.7483-6.277 4.1822zM1.7437 23.4205L4.882 33.4578c1.7436-1.4339 3.836-2.8678 6.2769-4.1822-3.1384-2.1509-6.1606-4.1822-9.4153-5.8551zm28.9435.5974c2.441 2.3899 4.6495 5.2577 6.5093 8.8424l3.1385-10.0373c-3.1385.1195-6.3931.5975-9.6478 1.1949zM12.7863 15.295c-.3487 4.1822-.3487 8.6034.1162 13.0246 4.3009-2.0313 9.4154-3.8237 14.8786-5.0186-3.2547-2.5094-6.6256-4.0628-10.1128-5.7357-1.6273-.7169-3.2547-1.4339-4.882-2.2703zM1.7436 21.8671c3.371 1.7923 6.6256 3.8237 9.764 6.0941-.3487-4.3017-.3487-8.484-.1162-12.6662-3.7196 1.7924-6.9743 4.0627-9.6478 6.5721zm27.6648-10.9933c.465 3.8237.5812 7.8865.5812 11.8297 3.371-.7169 6.7419-1.1949 9.8803-1.4339-3.1384-3.8237-6.5093-7.1695-10.4615-10.3958zm-15.576 3.3458c1.3949.7169 2.7898 1.3144 4.4171 2.0313 3.4872 1.5534 6.9743 3.2263 10.4615 5.8552 0-4.0628-.1162-8.1255-.6974-12.0688-5.2308 1.0755-9.9966 2.3899-14.1812 4.1823zM4.882 9.6789L1.976 19.8357c2.441-2.1509 5.4633-4.0627 8.8342-5.7356-2.3248-1.3144-4.1846-2.7483-5.9282-4.4212zm25.3401.1195c3.4872 2.7483 6.6256 5.8551 9.4154 9.2009l-2.7898-9.9179-6.6256.717zM15.2273 1.6729c-1.0462 3.7043-1.8598 7.528-2.3248 11.4712 4.1846-1.7923 8.8342-3.2263 13.9487-4.0627-3.1385-2.5093-6.8581-4.7797-11.6239-7.4085zm-9.6478 6.811c1.7435 1.7924 3.7196 3.2263 6.0444 4.6602.3487-3.5847 1.0461-7.1695 1.976-10.6348L5.5795 8.484zm22.4341-6.2135c.4649 2.0313.8136 4.1822 1.1624 6.333a56.078 56.078 0 016.2769-.717l-7.4393-5.616zm-10.5778-.956c3.9522 2.2704 7.3231 4.4212 10.2291 6.572-.3488-2.1508-.6975-4.4211-1.2787-6.572h-8.9504z" fill="#FF000A"></path><path d="M59.1676 43.4946h-5.5794v4.1822h4.7658v1.0755h-4.7658v4.8992h-1.1624V42.4192h6.7418v1.0754zM68.4651 53.6515h-1.2787l-.9299-2.5094H61.607l-.9299 2.5094h-1.2787l4.0684-11.2323h.9299l4.0684 11.2323zm-6.5094-3.5848h4.0683l-1.976-5.9746-2.0923 5.9746zM76.7204 43.6135l-.6974.7169c-.6974-.5974-1.3949-.9559-2.5573-.9559-1.5111 0-2.3247.8364-2.3247 2.1509 0 .5974.1162.9559.4649 1.3144.3487.239.8137.4779 1.3949.5974l1.2786.239c1.0462.1195 1.5111.3585 1.9761.8365.5812.4779.9299 1.3144.9299 2.1508 0 1.9119-1.5111 3.2263-3.7197 3.2263-1.6273 0-2.6735-.478-3.7196-1.4339l.8137-.8364c.9299.9559 1.7435 1.1949 3.0222 1.1949 1.6273 0 2.5572-.717 2.5572-2.0314 0-.5975-.1162-1.0754-.5812-1.4339-.3487-.3585-.6974-.478-1.3948-.5975l-1.2787-.2389c-.8136-.1195-1.5111-.3585-1.976-.8365-.5812-.478-.8137-1.1949-.8137-2.1508 0-1.9119 1.2786-3.1068 3.4872-3.1068 1.2786-.1195 2.2085.3584 3.1384 1.1949zM85.9042 43.4946h-3.1385v10.1569h-1.1624V43.4946h-3.1385v-1.0754h7.4394v1.0754zM87.6449 53.6502H86.25v-1.4339h1.3949v1.4339zM101.48 43.4946h-5.5793v4.1822h4.7653v1.0755h-4.7653v4.8992h-1.1624V42.4192h6.7417v1.0754zM109.499 43.4941c1.046 1.0755 1.046 2.0314 1.046 4.6602 0 2.6288-.117 3.5848-1.046 4.6602-.698.717-1.628 1.0754-2.674 1.0754-1.162 0-2.092-.3584-2.673-1.0754-1.047-1.0754-1.047-2.0314-1.047-4.6602 0-2.6288.117-3.5847 1.047-4.6602.697-.7169 1.627-1.0754 2.673-1.0754 1.162-.1195 2.092.3585 2.674 1.0754zm-4.534.717c-.697.7169-.813 1.5534-.813 3.8237 0 2.2704.116 3.1068.813 3.8238.465.4779 1.163.8364 1.86.8364.698 0 1.395-.239 1.86-.8364.697-.717.814-1.5534.814-3.8238 0-2.2703-.117-3.1068-.814-3.8237-.465-.478-1.162-.8365-1.86-.8365-.697 0-1.395.3585-1.86.8365zM117.521 42.4192c1.859 0 3.254 1.1949 3.254 3.1068 0 1.6729-.93 2.7483-2.325 2.9873l2.558 5.1382h-1.395l-2.441-5.0187h-2.674v5.0187h-1.162V42.4192h4.185zm-3.023 1.0754v4.0628h2.906c1.279 0 2.209-.717 2.209-2.0314s-.93-2.0314-2.209-2.0314h-2.906zM132.631 53.6515h-1.046l-2.441-8.962-2.441 8.962h-1.046l-2.79-11.2323h1.279l2.092 9.0814 2.441-9.0814h1.046l2.441 9.0814 2.093-9.0814h1.278l-2.906 11.2323zM145.067 53.6515h-1.279l-.93-2.5094h-4.766l-.93 2.5094H136l4.068-11.2323h.93l4.069 11.2323zm-6.51-3.5848h4.069l-1.976-5.9746-2.093 5.9746zM151.692 42.5388c1.86 0 3.255 1.1949 3.255 3.1068 0 1.6729-.93 2.7484-2.325 2.9873l2.558 5.1382h-1.395l-2.441-5.0187h-2.674v5.0187h-1.162V42.5388h4.184zm-3.022 1.0755v4.0627h2.906c1.279 0 2.209-.717 2.209-2.0314s-.93-2.0313-2.209-2.0313h-2.906zM161.575 42.4192c1.279 0 2.092.3585 2.906 1.1949.93 1.0754.93 2.7483.93 4.4212 0 1.6729 0 3.3458-.93 4.4212-.697.8365-1.627 1.195-2.906 1.195h-3.72V42.4192h3.72zm-2.557 1.0754v9.0814h2.325c.813 0 1.627-.239 2.092-.8364.697-.717.697-2.1509.697-3.7043s0-2.9873-.697-3.7042c-.581-.5975-1.279-.8365-2.092-.8365h-2.325zM168.782 53.6502h-1.395v-1.4339h1.395v1.4339zM108.568 10.8728l-7.439 21.1501h4.185l1.278-3.7043h7.323l1.163 3.7043h4.184l-7.555-21.1501h-3.139zm-.93 13.9806l2.558-7.6475 2.557 7.6475h-5.115zm29.757-7.4086c0-3.5847-2.441-6.4525-6.625-6.4525h-8.021v21.1501h4.069v-8.484h2.906l4.068 8.484h4.65l-4.65-9.0814c1.744-.8365 3.603-2.6289 3.603-5.6162zm-6.974 2.7484h-3.836V14.577h3.836c1.744 0 2.906 1.195 2.906 2.7484 0 1.6728-1.162 2.8678-2.906 2.8678zm26.27-2.7484c0-3.5847-2.441-6.4525-6.625-6.4525h-8.021v21.1501h4.068v-8.484h2.906l4.069 8.484h4.649l-4.649-9.0814c1.86-.8365 3.603-2.6289 3.603-5.6162zm-6.974 2.7484h-3.836V14.577h3.836c1.743 0 2.906 1.195 2.906 2.7484.116 1.6728-1.046 2.8678-2.906 2.8678zm11.624-9.3204h4.068v21.1501h-4.068V10.8728zm21.155 10.5153c1.046 1.0754 1.627 2.6288 1.627 4.5407 0 4.0627-3.37 6.4526-7.671 6.4526-3.139 0-5.463-.717-7.556-2.7484l2.557-2.6288c1.279 1.3144 3.023 1.7924 4.999 1.7924 2.325 0 3.603-.9559 3.603-2.6288 0-.717-.232-1.3144-.581-1.7924-.349-.3585-.814-.5975-1.86-.717l-2.441-.3584c-1.743-.239-3.022-.8365-3.952-1.7924-.93-.956-1.511-2.3899-1.511-4.1822 0-3.8238 2.673-6.4526 7.207-6.4526 2.789 0 4.882.7169 6.625 2.5093l-2.557 2.6288c-1.279-1.3144-2.906-1.4339-4.185-1.4339-2.092 0-3.138 1.195-3.138 2.6289 0 .4779.116 1.0754.581 1.5534.349.3584 1.046.7169 1.86.8364l2.441.3585c1.86 0 3.022.5974 3.952 1.4339zM78.3461 25.9288c0 4.1822-3.0222 6.3331-6.5094 6.3331-2.9059 0-5.6957-1.4339-6.3931-4.6602l3.6034-1.5534c0 1.9119 1.2786 2.7483 2.7897 2.7483 1.6274 0 2.7898-1.0754 2.7898-2.9873 0-1.7924-1.0462-2.8678-2.906-2.8678h-.1163v-3.3458h.1163c1.8598 0 2.5572-1.1949 2.5572-2.6288 0-1.7924-1.1623-2.7483-2.5572-2.7483-1.3949 0-2.441.9559-2.5573 2.5093l-3.6034-1.5534c.6975-2.8678 3.1385-4.5407 6.0444-4.5407 3.6035 0 6.2769 2.5093 6.2769 6.0941 0 2.2703-1.0461 3.5848-2.3247 4.3017 1.6273.9559 2.7897 2.3899 2.7897 4.8992zm15.2273-15.056h4.0684v21.1501h-4.0684v-8.8424h-6.9743v8.8424h-4.0684V10.8728h4.0684v8.6034h6.9743v-8.6034zM56.377 28.4381h6.3931v3.7043H52.3086V10.8728h4.0684v17.5653zm130.885-16.9679h3.371v.717h-1.279v4.1822h-.697v-4.1822h-1.279v-.717h-.116zm8.253 0v4.8992h-.698v-3.2263l-1.046 2.2704h-.581l-1.046-2.2704v3.2263h-.697v-4.8992h.697l1.395 2.9873 1.278-2.9873h.698z" fill="currentColor"></path></svg>